# AST/ASF file generated using VICON BodyLanguage
# -----------------------------------------------
:version 1.10
:name VICON
:units
  mass 1.0
  length 0.45
  angle deg
:documentation
   .ast/.asf automatically generated from VICON data using
   VICON BodyBuilder and BodyLanguage model FoxedUp or BRILLIANT.MOD
:root
   order TX TY TZ RX RY RZ
   axis XYZ
   position 0 0 0  
   orientation 0 0 0 
:bonedata
  begin
     id 1 
     name lhipjoint
     direction 0.567725 -0.736092 0.368589 
     length 2.42353 
     axis 0 0 0  XYZ
  end
  begin
     id 2 
     name lfemur
     direction 0.34202 -0.939693 0  
     length 7.24894  
     axis 0 0 20  XYZ
    dof rx ry rz
    limits (-160.0 20.0)
           (-70.0 70.0)
           (-60.0 70.0)
  end
  begin
     id 3 
     name ltibia
     direction 0.34202 -0.939693 0   
     length 7.6997   
     axis 0 0 20   XYZ
    dof rx
    limits (-10.0 170.0)
  end
  begin
     id 4 
     name lfoot
     direction 0.100767 -0.276854 0.955614   
     length 2.37556   
     axis -90 7.62852e-016 20   XYZ
    dof rx rz
    limits (-45.0 90.0)
           (-70.0 20.0)
  end
  begin
     id 5 
     name ltoes
     direction 1.53592e-011 -4.21894e-011 1   
     length 1.18363   
     axis -90 7.62852e-016 20   XYZ
    dof rx
    limits (-90.0 20.0)
  end
  begin
     id 6 
     name rhipjoint
     direction -0.556459 -0.742938 0.372017   
     length 2.4012  
     axis 0 0 0  XYZ 
  end
  begin
     id 7 
     name rfemur
     direction -0.34202 -0.939693 0   
     length 7.5119   
     axis 0 0 -20   XYZ
    dof rx ry rz
    limits (-160.0 20.0)
           (-70.0 70.0)
           (-70.0 60.0)
  end
  begin
     id 8 
     name rtibia
     direction -0.34202 -0.939693 0   
     length 7.50155   
     axis 0 0 -20   XYZ
    dof rx
    limits (-10.0 170.0)
 end
 begin
     id 9 
     name rfoot
     direction -0.118427 -0.325376 0.938139   
     length 2.32487  
     axis -90 -7.62852e-016 -20   XYZ
    dof rx rz
    limits (-45.0 90.0)
           (-20.0 70.0)
  end
  begin
     id 10 
     name rtoes
     direction -1.53525e-011 -4.21868e-011 1   
     length 1.15233   
     axis -90 -7.62852e-016 -20   XYZ
    dof rx
    limits (-90.0 20.0)
  end
  begin
     id 11 
     name lowerback
     direction 0.0287568 0.999577 -0.00434502   
     length 2.15243   
     axis 0 0 0   XYZ
    dof rx ry rz
    limits (-20.0 45.0)
           (-30.0 30.0)
           (-30.0 30.0)
  end
  begin
     id 12 
     name upperback
     direction 0.0294009 0.99956 0.00404628   
     length 2.15427   
     axis 0 0 0   XYZ
    dof rx ry rz
    limits (-20.0 45.0)
           (-30.0 30.0)
           (-30.0 30.0)
  end
  begin
     id 13 
     name thorax
     direction 0.0151014 0.999868 0.0059419   
     length 2.14898   
     axis 0 0 0   XYZ
    dof rx ry rz
    limits (-20.0 45.0)
           (-30.0 30.0)
           (-30.0 30.0)
  end
  begin
     id 14 
     name lowerneck
     direction -0.0249197 0.989906 0.139515   
     length 1.6861   
     axis 0 0 0   XYZ
    dof rx ry rz
    limits (-20.0 45.0)
           (-30.0 30.0)
           (-30.0 30.0)
  end
  begin
     id 15 
     name upperneck
     direction 0.0438463 0.988795 -0.142693   
     length 1.71276   
     axis 0 0 0   XYZ
    dof rx ry rz
    limits (-20.0 45.0)
           (-30.0 30.0)
           (-30.0 30.0)
  end
  begin
     id 16
     name head
     direction 0.0148499 0.997845 -0.0639186  
     length 1.7209  
     axis 0 0 0   XYZ
    dof rx ry rz
    limits (-20.0 45.0)
           (-30.0 30.0)
           (-30.0 30.0)
  end
  begin
     id 17 
     name lclavicle
     direction 0.940298 0.323464 -0.105876  
     length 3.9048  
     axis 0 0 0   XYZ
    dof ry rz
    limits (-20.0 10.0)
           (0.0 20.0)
  end
  begin
     id 18 
     name lhumerus
     direction 1 -4.48954e-011 -4.9675e-028   
     length 4.6851   
     axis 180 -30 -90   XYZ
    dof rx ry rz
    limits (-60.0 90.0)
           (-90.0 90.0)
           (-90.0 90.0)
  end
  begin
     id 19
     name lradius
     direction 1 -4.48992e-011 -1.03359e-026   
     length 3.39626   
     axis 180 -30 -90   XYZ
    dof rx
    limits (-10.0 170.0)
  end
  begin
     id 20
     name lwrist
     direction 1 -4.48906e-011 -1.67336e-026   
     length 1.69813   
     axis 9.90442e-015 90 90   XYZ
    dof ry
    limits (-180.0 0.0)
 end
  begin
     id 21 
     name lhand
     direction 1 -4.49006e-011 -3.34673e-026   
     length 0.486078   
     axis 2.1355e-014 90 90   XYZ
    dof rx rz
    limits (-90.0 90.0)
           (-45.0 45.0)
  end
  begin
     id 22 
     name lfingers
     direction 1 -4.48992e-011 -6.69345e-026   
     length 0.391889   
     axis 4.27099e-014 90 90   XYZ
    dof rx
    limits (0.0 90.0)
  end
  begin
     id 23
     name lthumb
     direction 0.707107 -6.34926e-011 0.707107   
     length 0.562676   
     axis -90 45 2.85299e-015   XYZ
    dof rx rz
    limits (-45.0 45.0)
           (-45.0 45.0)
  end
  begin
     id 24 
     name rclavicle
     direction -0.882459 0.414895 -0.221648   
     length 3.44646  
     axis 0 0 0   XYZ 
    dof ry rz
    limits (-10.0 20.0)
           (-20.0 0.0)
  end
  begin
     id 25 
     name rhumerus
     direction -1 -4.48962e-011 -2.37984e-027  
     length 5.55576   
     axis 180 30 90   XYZ
    dof rx ry rz
    limits (-90.0 60.0)
           (-90.0 90.0)
           (-90.0 90.0)
  end
  begin
     id 26 
     name rradius
     direction -1 -4.48982e-011 -6.86791e-027   
     length 3.32774   
     axis 180 30 90   XYZ
    dof rx
    limits (-10.0 170.0)
  end
  begin
     id 27 
     name rwrist
     direction -1 -4.48961e-011 -1.67336e-026   
     length 1.66387   
     axis 9.90442e-015 -90 -90   XYZ
    dof ry
    limits (-180.0 0.0)
  end
  begin
     id 28
     name rhand
     direction -1 -4.4897e-011 -3.34673e-026   
     length 0.507628   
     axis 2.1355e-014 -90 -90   XYZ
    dof rx rz
    limits (-90.0 90.0)
           (-45.0 45.0)
  end
  begin
     id 29
     name rfingers
     direction -1 -4.48854e-011 -6.69345e-026   
     length 0.409263   
     axis 4.27099e-014 -90 -90   XYZ
    dof rx
    limits (0.0 90.0)
  end
  begin
     id 30
     name rthumb
     direction -0.707107 -6.34913e-011 0.707107   
     length 0.587622   
     axis -90 -45 -2.85299e-015   XYZ
    dof rx rz
    limits (-45.0 45.0)
           (-45.0 45.0)
  end
:hierarchy
  begin
    root lhipjoint rhipjoint lowerback
    lhipjoint lfemur
    lfemur ltibia
    ltibia lfoot
    lfoot ltoes
    rhipjoint rfemur
    rfemur rtibia
    rtibia rfoot
    rfoot rtoes
    lowerback upperback
    upperback thorax
    thorax lowerneck lclavicle rclavicle
    lowerneck upperneck
    upperneck head
    lclavicle lhumerus
    lhumerus lradius
    lradius lwrist
    lwrist lhand lthumb
    lhand lfingers
    rclavicle rhumerus
    rhumerus rradius
    rradius rwrist
    rwrist rhand rthumb
    rhand rfingers
  end

#!OML:ASF E:\motion texture\Top Level 1\Subject 1\Session 1\male.ASF
:FULLY-SPECIFIED
:DEGREES
110
root 36.4325 17.3223 5.26096 151.824 -75.6856 -139.365
lowerback -2.22302 0.13791 7.52737
upperback -2.11005 -0.00861698 2.64396
thorax -0.930172 -0.122519 -1.48775
lowerneck -18.7004 -6.92203 -9.41663
upperneck 9.71559 -8.1935 8.41726
head 6.74219 -3.63738 3.29651
rclavicle 8.32411e-015 3.83654e-014
rhumerus -29.3767 14.6954 -89.6721
rradius 54.5426
rwrist 10.8955
rhand -17.3894 -24.6429
rfingers 7.12502
rthumb 8.85958 -54.4369
lclavicle 8.32411e-015 3.83654e-014
lhumerus -33.1148 -7.88985 91.2874
lradius 55.8787
lwrist -4.4185
lhand -14.8354 23.8697
lfingers 7.12502
lthumb 11.3235 53.544
rfemur -1.00803 4.97033 32.5218
rtibia 15.9156
rfoot -18.0679 -8.20924
rtoes -0.237042
lfemur -38.9296 2.21386 -3.05959
ltibia 19.6431
lfoot -3.95754 10.3011
ltoes -10.2165
111
root 36.3156 17.3094 5.26092 152.338 -75.5672 -139.873
lowerback -2.1539 0.159758 7.47536
upperback -2.15161 0.0310743 2.62708
thorax -1.00864 -0.105394 -1.47559
lowerneck -18.7808 -6.89636 -9.38006
upperneck 9.71192 -8.15413 8.37594
head 6.74696 -3.61856 3.28069
rclavicle -3.87009e-014 1.78906e-015
rhumerus -29.0265 15.1742 -89.7919
rradius 55.6435
rwrist 11.1284
rhand -17.712 -24.6579
rfingers 7.12502
rthumb 8.54823 -54.4649
lclavicle -3.87009e-014 1.78906e-015
lhumerus -32.6567 -8.5397 91.5923
lradius 56.4733
lwrist -4.25471
lhand -14.8421 24.0007
lfingers 7.12502
lthumb 11.317 53.6754
rfemur -0.779439 5.00993 32.3885
rtibia 16.217
rfoot -18.0393 -8.0666
rtoes -0.659601
lfemur -38.9158 1.95908 -2.83792
ltibia 19.2152
lfoot -3.68861 10.4572
ltoes -10.1565
112
root 36.1963 17.2973 5.26147 152.823 -75.4591 -140.357
lowerback -2.102 0.178775 7.42311
upperback -2.1805 0.0646054 2.60656
thorax -1.06485 -0.0902373 -1.46727
lowerneck -18.8663 -6.87105 -9.33929
upperneck 9.70236 -8.11637 8.33897
head 6.75087 -3.59998 3.26534
rclavicle -1.74309e-014 2.88238e-015
rhumerus -28.6343 15.6336 -89.8973
rradius 56.7388
rwrist 11.3627
rhand -18.0447 -24.6776
rfingers 7.12502
rthumb 8.22716 -54.4974
lclavicle -1.74309e-014 2.88238e-015
lhumerus -32.1472 -9.20319 91.8845
lradius 57.044
lwrist -4.08776
lhand -14.8471 24.129
lfingers 7.12502
lthumb 11.3122 53.8039
rfemur -0.565616 5.03621 32.2425
rtibia 16.5623
rfoot -17.9945 -7.91437
rtoes -1.13257
lfemur -38.8973 1.72785 -2.65498
ltibia 18.8745
lfoot -3.43835 10.5761
ltoes -10.0836
113
root 36.0746 17.2859 5.26256 153.288 -75.3629 -140.829
lowerback -2.0541 0.19516 7.36541
upperback -2.20625 0.0941622 2.58346
thorax -1.11589 -0.0766733 -1.4587
lowerneck -18.9491 -6.84645 -9.29762
upperneck 9.6927 -8.08061 8.30496
head 6.7546 -3.58219 3.25062
rclavicle -1.1691e-014 2.33572e-014
rhumerus -28.2161 16.0722 -89.9886
rradius 57.8285
rwrist 11.5981
rhand -18.3894 -24.7043
rfingers 7.12502
rthumb 7.89455 -54.5369
lclavicle -1.1691e-014 2.33572e-014
lhumerus -31.6023 -9.88077 92.1687
lradius 57.5929
lwrist -3.91673
lhand -14.8489 24.2551
lfingers 7.12502
lthumb 11.3105 53.9301
rfemur -0.368247 5.05148 32.0812
rtibia 16.953
rfoot -17.9301 -7.75366
rtoes -1.6481
lfemur -38.8742 1.52301 -2.5172
ltibia 18.6209
lfoot -3.2083 10.6541
ltoes -9.99721
114
root 35.9506 17.2755 5.26427 153.725 -75.2809 -141.279
lowerback -1.99637 0.207454 7.29921
upperback -2.23877 0.119619 2.56167
thorax -1.17981 -0.0655455 -1.44412
lowerneck -19.0264 -6.82258 -9.25646
upperneck 9.69226 -8.04619 8.26733
head 6.76041 -3.5654 3.23472
rclavicle 8.03835e-015 -1.37161e-014
rhumerus -27.7895 16.4946 -90.0652
rradius 58.9136
rwrist 11.8342
rhand -18.7459 -24.7378
rfingers 7.12502
rthumb 7.5504 -54.5831
lclavicle 8.03835e-015 -1.37161e-014
lhumerus -31.0381 -10.5662 92.4516
lradius 58.1215
lwrist -3.74048
lhand -14.8476 24.3796
lfingers 7.12502
lthumb 11.3117 54.0545
rfemur -0.189322 5.05463 31.9054
rtibia 17.3899
rfoot -17.8378 -7.58591
rtoes -2.22429
lfemur -38.847 1.34408 -2.42668
ltibia 18.4533
lfoot -2.99891 10.6877
ltoes -9.89293
115
root 35.8242 17.2663 5.26654 154.133 -75.2119 -141.708
lowerback -1.94198 0.21658 7.23112
upperback -2.26543 0.140244 2.53718
thorax -1.23618 -0.0563323 -1.43138
lowerneck -19.1093 -6.80072 -9.21431
upperneck 9.69387 -8.0151 8.23352
head 6.76827 -3.54974 3.21937
rclavicle -3.67752e-015 1.48095e-014
rhumerus -27.3319 16.896 -90.1273
rradius 59.9879
rwrist 12.0693
rhand -19.1134 -24.7824
rfingers 7.12502
rthumb 7.19567 -54.64
lclavicle -3.67752e-015 1.48095e-014
lhumerus -30.4328 -11.2652 92.7235
lradius 58.6267
lwrist -3.55417
lhand -14.8463 24.4967
lfingers 7.12502
lthumb 11.313 54.1716
rfemur -0.0298075 5.04851 31.7173
rtibia 17.8757
rfoot -17.7164 -7.41157
rtoes -2.82959
lfemur -38.8128 1.19463 -2.38444
ltibia 18.3673
lfoot -2.8067 10.6754
ltoes -9.76938
116
root 35.6956 17.2581 5.26944 154.517 -75.1581 -142.12
lowerback -1.88551 0.221785 7.15594
upperback -2.29507 0.155972 2.51299
thorax -1.2972 -0.0496095 -1.41447
lowerneck -19.1792 -6.77886 -9.17487
upperneck 9.69592 -7.9847 8.20085
head 6.77439 -3.53473 3.205
rclavicle -6.29899e-015 -8.05078e-015
rhumerus -26.8618 17.2818 -90.1749
rradius 61.0534
rwrist 12.302
rhand -19.4886 -24.835
rfingers 7.12502
rthumb 6.83353 -54.7047
lclavicle -6.29899e-015 -8.05078e-015
lhumerus -29.804 -11.9709 92.9902
lradius 59.1112
lwrist -3.35725
lhand -14.8403 24.6081
lfingers 7.12502
lthumb 11.3188 54.2827
rfemur 0.106542 5.03361 31.515
rtibia 18.4128
rfoot -17.5583 -7.23048
rtoes -3.46685
lfemur -38.7726 1.0728 -2.39269
ltibia 18.3598
lfoot -2.63096 10.6166
ltoes -9.6257
